HIERARCHY
ROOT Reference
{
  OFFSET 0 0 0
  CHANNELS 6 Xposition Yposition Zposition Zrotation Xrotation Yrotation
  JOINT Hips
  {
    OFFSET 251.394 724.17 483.536
    CHANNELS 3 Zrotation Xrotation Yrotation
    JOINT RightUpLeg
    {
      OFFSET -0.450515 -23.4426 -1.37224
      CHANNELS 3 Zrotation Xrotation Yrotation
      JOINT RightLeg
      {
        OFFSET 112.821 0.0872427 -0.321027
        CHANNELS 3 Zrotation Xrotation Yrotation
        JOINT RightFoot
        {
          OFFSET 105.718 0.000193788 0.0213165
          CHANNELS 3 Zrotation Xrotation Yrotation
          JOINT RightToeBase
          {
            OFFSET 37.638 -0.000116272 0.00224792
            CHANNELS 3 Zrotation Xrotation Yrotation
            JOINT RightToeEnd
            {
              OFFSET 21.2112 0.114605 -0.000138184
              CHANNELS 3 Zrotation Xrotation Yrotation
              End Site
              {
                OFFSET 0 0 0
              }
            }
          }
        }
      }
    }
    JOINT LeftUpLeg
    {
      OFFSET -0.449508 23.4315 -1.37054
      CHANNELS 3 Zrotation Xrotation Yrotation
      JOINT LeftLeg
      {
        OFFSET 112.821 -0.0485242 -0.372458
        CHANNELS 3 Zrotation Xrotation Yrotation
        JOINT LeftFoot
        {
          OFFSET 105.716 0.00496094 -0.0229443
          CHANNELS 3 Zrotation Xrotation Yrotation
          JOINT LeftToeBase
          {
            OFFSET 37.639 0 0.00158905
            CHANNELS 3 Zrotation Xrotation Yrotation
            JOINT LeftToeEnd
            {
              OFFSET 21.2113 -0.125031 -0.00017438
              CHANNELS 3 Zrotation Xrotation Yrotation
              End Site
              {
                OFFSET 0 0 0
              }
            }
          }
        }
      }
    }
    JOINT Spine
    {
      OFFSET -5.01225 0.000463591 -9.60395
      CHANNELS 3 Zrotation Xrotation Yrotation
      JOINT Spine1
      {
        OFFSET 26.0222 -0.000271301 -0.000155029
        CHANNELS 3 Zrotation Xrotation Yrotation
        JOINT Spine2
        {
          OFFSET 27.173 -0.000155029 -0.000310058
          CHANNELS 3 Zrotation Xrotation Yrotation
          JOINT Spine3
          {
            OFFSET 36.3953 -0.000232544 7.75146e-005
            CHANNELS 3 Zrotation Xrotation Yrotation
            JOINT Neck
            {
              OFFSET 36.4331 0 -3.00261
              CHANNELS 3 Zrotation Xrotation Yrotation
              JOINT Head
              {
                OFFSET 23.0407 -0.000232544 -0.000310058
                CHANNELS 3 Zrotation Xrotation Yrotation
                End Site
                {
                  OFFSET 0 0 0
                }
              }
            }
            JOINT LeftShoulder
            {
              OFFSET 20.1317 6.74168 -12.6061
              CHANNELS 3 Zrotation Xrotation Yrotation
              JOINT LeftArm
              {
                OFFSET 34.2172 -5.81359e-005 7.75146e-005
                CHANNELS 3 Zrotation Xrotation Yrotation
                JOINT LeftForeArm
                {
                  OFFSET 65.4129 -0.0821605 0.0585235
                  CHANNELS 3 Zrotation Xrotation Yrotation
                  JOINT LeftHand
                  {
                    OFFSET 67.3883 0.0359667 0.0112396
                    CHANNELS 3 Zrotation Xrotation Yrotation
                    JOINT LeftHandThumb1
                    {
                      OFFSET 8.78386 2.85353 -6.05362
                      CHANNELS 3 Zrotation Xrotation Yrotation
                      JOINT LeftHandThumb2
                      {
                        OFFSET 8.25498 -0.000116272 -0.000174407
                        CHANNELS 3 Zrotation Xrotation Yrotation
                        JOINT LeftHandThumb3
                        {
                          OFFSET 7.24822 0.000310058 5.81358e-005
                          CHANNELS 3 Zrotation Xrotation Yrotation
                          JOINT LeftHandThumb4
                          {
                            OFFSET 7.0004 -3.87568e-005 -0.000310057
                            CHANNELS 3 Zrotation Xrotation Yrotation
                            End Site
                            {
                              OFFSET 0 0 0
                            }
                          }
                        }
                      }
                    }
                    JOINT LeftHandIndex1
                    {
                      OFFSET 24.0991 -1.01537 -5.40558
                      CHANNELS 3 Zrotation Xrotation Yrotation
                      JOINT LeftHandIndex2
                      {
                        OFFSET 7.26759 -0.000290679 -0.000465086
                        CHANNELS 3 Zrotation Xrotation Yrotation
                        JOINT LeftHandIndex3
                        {
                          OFFSET 7.13628 -1.93787e-005 0.000232543
                          CHANNELS 3 Zrotation Xrotation Yrotation
                          JOINT LeftHandIndex4
                          {
                            OFFSET 5.46699 9.68932e-005 -0.000387571
                            CHANNELS 3 Zrotation Xrotation Yrotation
                            End Site
                            {
                              OFFSET 0 0 0
                            }
                          }
                        }
                      }
                    }
                    JOINT LeftHandMiddle1
                    {
                      OFFSET 24.4604 -2.52837 0.918567
                      CHANNELS 3 Zrotation Xrotation Yrotation
                      JOINT LeftHandMiddle2
                      {
                        OFFSET 7.41627 -5.81359e-005 0.000116271
                        CHANNELS 3 Zrotation Xrotation Yrotation
                        JOINT LeftHandMiddle3
                        {
                          OFFSET 8.76829 3.87573e-005 -7.75142e-005
                          CHANNELS 3 Zrotation Xrotation Yrotation
                          JOINT LeftHandMiddle4
                          {
                            OFFSET 6.07588 -0.00013565 -5.81356e-005
                            CHANNELS 3 Zrotation Xrotation Yrotation
                            End Site
                            {
                              OFFSET 0 0 0
                            }
                          }
                        }
                      }
                    }
                    JOINT LeftHandRing1
                    {
                      OFFSET 22.465 -1.97467 6.3466
                      CHANNELS 3 Zrotation Xrotation Yrotation
                      JOINT LeftHandRing2
                      {
                        OFFSET 7.36666 -0.000232544 0.000387571
                        CHANNELS 3 Zrotation Xrotation Yrotation
                        JOINT LeftHandRing3
                        {
                          OFFSET 8.07624 -0.000465087 -0.000203475
                          CHANNELS 3 Zrotation Xrotation Yrotation
                          JOINT LeftHandRing4
                          {
                            OFFSET 6.04433 0.00013565 3.87571e-005
                            CHANNELS 3 Zrotation Xrotation Yrotation
                            End Site
                            {
                              OFFSET 0 0 0
                            }
                          }
                        }
                      }
                    }
                    JOINT LeftHandPinky1
                    {
                      OFFSET 19.5278 0.352933 10.4295
                      CHANNELS 3 Zrotation Xrotation Yrotation
                      JOINT LeftHandPinky2
                      {
                        OFFSET 6.16525 5.8136e-005 -0.000251921
                        CHANNELS 3 Zrotation Xrotation Yrotation
                        JOINT LeftHandPinky3
                        {
                          OFFSET 6.14448 -0.000329434 -0.00510625
                          CHANNELS 3 Zrotation Xrotation Yrotation
                          JOINT LeftHandPinky4
                          {
                            OFFSET 4.98555 0.000116272 0.000116271
                            CHANNELS 3 Zrotation Xrotation Yrotation
                            End Site
                            {
                              OFFSET 0 0 0
                            }
                          }
                        }
                      }
                    }
                  }
                }
              }
            }
            JOINT RightShoulder
            {
              OFFSET 20.1309 -6.74152 -12.6063
              CHANNELS 3 Zrotation Xrotation Yrotation
              JOINT RightArm
              {
                OFFSET 34.2171 7.75146e-005 7.75146e-005
                CHANNELS 3 Zrotation Xrotation Yrotation
                JOINT RightForeArm
                {
                  OFFSET 65.4492 0.242543 -0.176501
                  CHANNELS 3 Zrotation Xrotation Yrotation
                  JOINT RightHand
                  {
                    OFFSET 67.3888 -0.0867388 0.0597442
                    CHANNELS 3 Zrotation Xrotation Yrotation
                    JOINT RightHandThumb1
                    {
                      OFFSET 8.78307 -2.85357 -6.05302
                      CHANNELS 3 Zrotation Xrotation Yrotation
                      JOINT RightHandThumb2
                      {
                        OFFSET 8.25493 -7.75145e-005 0
                        CHANNELS 3 Zrotation Xrotation Yrotation
                        JOINT RightHandThumb3
                        {
                          OFFSET 7.24797 -0.000174408 0.000155029
                          CHANNELS 3 Zrotation Xrotation Yrotation
                          JOINT RightHandThumb4
                          {
                            OFFSET 7.00062 0 0
                            CHANNELS 3 Zrotation Xrotation Yrotation
                            End Site
                            {
                              OFFSET 0 0 0
                            }
                          }
                        }
                      }
                    }
                    JOINT RightHandIndex1
                    {
                      OFFSET 24.0991 1.01525 -5.40578
                      CHANNELS 3 Zrotation Xrotation Yrotation
                      JOINT RightHandIndex2
                      {
                        OFFSET 7.26773 7.75144e-005 0.000232543
                        CHANNELS 3 Zrotation Xrotation Yrotation
                        JOINT RightHandIndex3
                        {
                          OFFSET 7.13572 -0.000310058 3.87571e-005
                          CHANNELS 3 Zrotation Xrotation Yrotation
                          JOINT RightHandIndex4
                          {
                            OFFSET 5.46717 0 3.87572e-005
                            CHANNELS 3 Zrotation Xrotation Yrotation
                            End Site
                            {
                              OFFSET 0 0 0
                            }
                          }
                        }
                      }
                    }
                    JOINT RightHandMiddle1
                    {
                      OFFSET 24.4603 2.52899 0.918547
                      CHANNELS 3 Zrotation Xrotation Yrotation
                      JOINT RightHandMiddle2
                      {
                        OFFSET 7.41641 -0.000116272 -0.000116272
                        CHANNELS 3 Zrotation Xrotation Yrotation
                        JOINT RightHandMiddle3
                        {
                          OFFSET 8.76765 -3.87577e-005 0.000232543
                          CHANNELS 3 Zrotation Xrotation Yrotation
                          JOINT RightHandMiddle4
                          {
                            OFFSET 6.07609 -0.000193787 -0.000116271
                            CHANNELS 3 Zrotation Xrotation Yrotation
                            End Site
                            {
                              OFFSET 0 0 0
                            }
                          }
                        }
                      }
                    }
                    JOINT RightHandRing1
                    {
                      OFFSET 22.465 1.97571 6.34696
                      CHANNELS 3 Zrotation Xrotation Yrotation
                      JOINT RightHandRing2
                      {
                        OFFSET 7.36684 0.000193786 0.000155029
                        CHANNELS 3 Zrotation Xrotation Yrotation
                        JOINT RightHandRing3
                        {
                          OFFSET 8.07614 -0.000271301 0
                          CHANNELS 3 Zrotation Xrotation Yrotation
                          JOINT RightHandRing4
                          {
                            OFFSET 6.04468 0.000232543 0
                            CHANNELS 3 Zrotation Xrotation Yrotation
                            End Site
                            {
                              OFFSET 0 0 0
                            }
                          }
                        }
                      }
                    }
                    JOINT RightHandPinky1
                    {
                      OFFSET 19.5277 -0.352346 10.4296
                      CHANNELS 3 Zrotation Xrotation Yrotation
                      JOINT RightHandPinky2
                      {
                        OFFSET 6.16508 0 0.000232543
                        CHANNELS 3 Zrotation Xrotation Yrotation
                        JOINT RightHandPinky3
                        {
                          OFFSET 6.14396 -0.000155048 -0.0048834
                          CHANNELS 3 Zrotation Xrotation Yrotation
                          JOINT RightHandPinky4
                          {
                            OFFSET 4.98577 -7.75146e-005 -7.75143e-005
                            CHANNELS 3 Zrotation Xrotation Yrotation
                            End Site
                            {
                              OFFSET 0 0 0
                            }
                          }
                        }
                      }
                    }
                  }
                }
              }
            }
          }
        }
      }
    }
  }
}
MOTION
Frames:	4
Frame Time:	0.0333333
0 0 0 -90 -7.01671e-015 -180 -7.095 -6.05278 -117.238 -175.262 -19.4772 -94.6269 -0.137093 -0.269957 -26.8069 -8.66891 2.50811 39.6439 -0.575995 0.0777876 60.4361 3.03683e-005 -2.06541e-005 -86.4974 176.625 -13.3195 -114.661 -0.105663 -0.35581 -16.4153 -1.68214 -18.0916 49.1733 0.722458 -0.215757 57.0033 -4.54889e-005 -1.44576e-005 -86.4974 -0.0194 0.0380937 121.471 3.60685 3.56813 -13.1187 10.5793 4.36376 -15.3669 3.19627 -6.59359 8.95668 -5.96102 -1.19225 24.0879 4.96742 -5.38005 49.4813 101.918 23.0308 -25.3702 67.867 10.305 14.5003 -0.246158 -16.068 104.611 -35.8982 -48.3023 -6.21032 -158.644 -1.25064 151.962 0.000255551 -0.00017892 15.1881 0.000141561 -0.000165679 8.95278 0.000458475 -0.00135435 -0.000140867 36.0673 86.5084 -43.685 -0.000239103 -0.000329524 8.82135 0.000859386 -0.000846598 4.95718 -0.000633065 -0.000539916 -2.32887 -1.69052 86.8814 1.33319 -2.05545e-005 -0.000354347 11.9805 0.000918701 -0.000728008 12.8066 -0.000397153 -0.000417668 -2.32825 -0.793796 87.2537 6.72461 -5.15262e-005 -0.000794671 16.0747 0.00142052 -0.000588678 16.9212 -0.000714785 -0.000747204 -2.3276 31.5101 82.0866 -25.9269 0.00123487 -0.00134275 18.4917 -0.0198762 -0.00602354 16.6774 0.000117671 -0.000249018 -2.3289 -104.58 -23.461 -22.644 -76.6531 -21.0618 7.38051 9.99038 -0.97514 30.5987 9.69195 6.30921 -0.478944 158.644 1.25054 154.969 -0.000201255 -6.01991e-005 18.1946 6.82769e-005 0.00013059 11.959 -9.15527e-005 1.52588e-005 -180 -36.0643 -86.5085 -17.7557 -5.69202e-005 -0.000135678 14.4454 0.000100587 0.000112533 10.5801 -9.52721e-005 -9.14771e-005 177.672 1.69352 -86.8812 35.2101 2.61089e-005 -0.000163808 17.6049 -8.76946e-005 0.000333696 18.4312 -1.95981e-005 -0.000106723 177.672 63.4314 -87.7466 103.217 6.42624e-005 -0.000209365 21.6994 -9.44531e-006 0.000314687 22.5462 -4.45366e-005 3.04924e-005 177.672 63.1805 -86.0904 102.722 -0.000134373 0.000445893 24.1169 7.67952e-005 5.35525e-005 22.3014 -8.9693e-005 4.57386e-005 177.672 
0 0 0 -90 -7.01671e-015 -180 -7.09001 -6.0507 -117.26 -175.27 -19.4818 -94.6493 -0.135264 -0.267616 -26.862 -8.67887 2.49751 39.6943 -0.575995 0.0779137 60.436 3.03643e-005 -2.48366e-005 -86.4974 176.558 -13.279 -114.696 -0.106416 -0.35659 -16.4906 -1.68187 -18.023 49.3073 0.698943 -0.200281 56.9721 -4.54595e-005 -2.33063e-005 -86.4974 -0.0167398 0.0330556 121.358 3.58813 3.54888 -13.1907 10.5293 4.32884 -15.3674 3.17531 -6.62279 8.90078 -6.50194 -0.210285 24.0995 5.07402 -4.23952 49.3689 102.087 22.9453 -25.3428 67.7009 10.2142 14.3531 -0.207472 -15.5204 104.278 -34.6491 -48.4501 -6.16769 -158.644 -1.25064 151.962 0.000255724 -0.000200793 15.1881 0.000141644 -0.000188821 8.95278 0.000458475 -0.00140366 -0.000140867 36.0672 86.5084 -43.6849 -0.000239271 -0.000331464 8.82134 0.000859291 -0.000848752 4.95718 -0.000633025 -0.000542433 -2.32887 -1.6905 86.8814 1.33317 -2.09269e-005 -0.000405393 11.9805 0.000918531 -0.000795761 12.8066 -0.000397117 -0.000423036 -2.32825 -0.79378 87.2537 6.72459 -5.18555e-005 -0.00084934 16.0747 0.00141648 -0.000467275 16.9212 -0.000714768 -0.000750539 -2.3276 31.51 82.0866 -25.9269 0.00123197 -0.00121453 18.4917 -0.0191964 -0.00582607 16.6774 0.000114304 -6.93929e-005 -2.3289 -104.724 -23.4276 -22.6749 -76.4979 -20.997 7.39382 9.98372 -1.04818 30.6364 9.6688 6.30407 -0.5367 158.644 1.25051 154.969 -0.000201429 -7.30296e-005 18.1946 6.83293e-005 0.000130603 11.959 -9.15527e-005 1.52588e-005 -180 -36.0645 -86.5085 -17.7559 -5.77819e-005 -0.000135849 14.4454 0.000101121 0.000109266 10.5801 -9.52721e-005 -9.14771e-005 177.672 1.69342 -86.8812 35.21 2.62217e-005 -0.000217387 17.6049 -8.48439e-005 0.000316913 18.4312 -1.95981e-005 -0.000106723 177.672 63.4316 -87.7466 103.217 5.80645e-005 -0.000215179 21.6994 -7.78906e-006 0.000315393 22.5462 -4.45366e-005 3.04924e-005 177.672 63.1815 -86.0904 102.723 -0.000133759 0.000441413 24.1169 7.68378e-005 3.68522e-005 22.3014 -8.9693e-005 4.57386e-005 177.672 
0 0 0 -90 -7.01671e-015 -180 -7.08168 -6.03192 -117.276 -175.29 -19.4817 -94.6648 -0.129384 -0.249501 -26.9254 -8.69304 2.50039 39.7452 -0.575995 0.0779113 60.436 3.03781e-005 -3.0573e-005 -86.4974 176.477 -13.2275 -114.71 -0.106269 -0.353623 -16.5973 -1.68913 -17.9259 49.4685 0.675435 -0.18479 56.9409 -4.54212e-005 -4.07493e-005 -86.4974 -0.0141435 0.0280467 121.241 3.57625 3.52813 -13.2543 10.4838 4.29446 -15.3574 3.15923 -6.66922 8.84716 -7.01178 0.860444 23.9942 5.20329 -3.06511 49.0977 102.179 22.8911 -25.3121 67.6458 10.1909 14.2093 -0.172427 -15 103.983 -33.5213 -48.4961 -6.15755 -158.644 -1.25064 151.962 0.000256534 -0.000243411 15.1881 0.000142196 -0.000233649 8.95278 0.000458475 -0.00150367 -0.000140866 36.0668 86.5083 -43.6845 -0.000239431 -0.000336387 8.82134 0.000859185 -0.000853887 4.95718 -0.000632977 -0.000545953 -2.32887 -1.69048 86.8814 1.33315 -2.10985e-005 -0.000509038 11.9805 0.000915585 -0.000659958 12.8066 -0.000397081 -0.000427181 -2.32825 -0.793769 87.2537 6.72458 -5.22506e-005 -0.000957835 16.0747 0.00141642 -0.000470203 16.9212 -0.000714752 -0.000750462 -2.3276 31.51 82.0866 -25.9269 0.00123161 -0.00121625 18.4917 -0.0185143 -0.00561781 16.6774 0.000114329 -6.92929e-005 -2.3289 -104.876 -23.3934 -22.715 -76.3378 -20.9334 7.4208 9.9792 -1.1229 30.6797 9.63005 6.33162 -0.599554 158.644 1.2505 154.969 -0.000201423 -9.98006e-005 18.1946 6.84689e-005 0.000130636 11.959 -9.15527e-005 1.52588e-005 -180 -36.0648 -86.5085 -17.7562 -5.72415e-005 -0.000135658 14.4454 0.000100669 0.000106816 10.5801 -9.52721e-005 -9.14771e-005 177.672 1.69346 -86.8812 35.2101 2.7475e-005 -0.00032255 17.6049 -8.59177e-005 0.000281739 18.4312 -1.95981e-005 -0.000106723 177.672 63.4318 -87.7467 103.218 6.35131e-005 -0.000220949 21.6994 -9.475e-006 0.000311301 22.5462 -4.45366e-005 3.04924e-005 177.672 63.1794 -86.0904 102.721 -0.000133347 0.000434037 24.1169 7.78486e-005 -1.80339e-006 22.3014 -9.03129e-005 3.04924e-005 177.672 
0 0 0 -90 -7.01671e-015 -180 -7.07484 -6.01279 -117.306 -175.287 -19.4942 -94.6875 -0.133882 -0.243804 -26.9839 -8.69785 2.49141 39.7916 -0.575995 0.0779059 60.436 3.03572e-005 -3.96724e-005 -86.4974 176.483 -13.2263 -114.708 -0.114908 -0.380332 -16.6996 -1.66205 -17.8915 49.5397 0.64386 -0.16334 56.9424 -4.54108e-005 -7.5081e-005 -86.4974 -0.0116313 0.0231642 121.159 3.56711 3.50735 -13.3105 10.453 4.26451 -15.3709 3.14219 -6.71873 8.77068 -7.486 1.99225 23.7925 5.35317 -1.8729 48.8263 102.193 22.8725 -25.2961 67.6757 10.2329 14.047 -0.143107 -14.4947 103.723 -32.554 -48.4602 -6.22842 -158.644 -1.25062 151.962 0.000256004 -0.000331565 15.1881 0.000141846 -0.000323544 8.95278 0.000462744 -0.00130628 -0.000143429 36.0664 86.5083 -43.6841 -0.000239534 -0.00034427 8.82134 0.000859087 -0.000859014 4.95718 -0.000632936 -0.000550891 -2.32887 -1.69044 86.8813 1.33311 -1.83851e-005 -0.000304158 11.9805 0.000915404 -0.000660094 12.8066 -0.000397042 -0.00043254 -2.32825 -0.793799 87.2536 6.72461 -4.83577e-005 -0.000741717 16.0747 0.00141632 -0.000470728 16.9212 -0.00071474 -0.000753803 -2.3276 31.5099 82.0866 -25.9268 0.00123114 -0.00121979 18.4917 -0.0178325 -0.00541464 16.6774 0.000114345 -7.33754e-005 -2.3289 -105.011 -23.3623 -22.741 -76.2266 -20.8592 7.38197 9.98018 -1.19613 30.6851 9.61278 6.36935 -0.622172 158.644 1.25045 154.968 -0.000201246 -0.000152633 18.1946 6.82547e-005 0.000128182 11.959 -9.15527e-005 -7.01671e-015 -180 -36.0656 -86.5086 -17.7569 -5.69434e-005 -0.000137946 14.4454 0.000100532 0.00010201 10.5801 -9.52721e-005 -9.14771e-005 177.672 1.69343 -86.8812 35.21 2.65648e-005 -0.00011021 17.6049 -8.97408e-005 0.000210867 18.4312 -1.95981e-005 -0.000106723 177.672 63.433 -87.7467 103.219 6.74643e-005 -0.000233178 21.6994 -1.0014e-005 0.000306923 22.5462 -4.51565e-005 1.52462e-005 177.672 63.1794 -86.0904 102.721 -0.000134474 0.000417777 24.1169 7.66879e-005 -7.70781e-005 22.3014 -9.21726e-005 -1.52462e-005 177.672 
